<?xml version="1.0" encoding="UTF-8" standalone="no"?>
<!-- Created with Inkscape (http://www.inkscape.org/) -->
<svg
   xmlns:svg="http://www.w3.org/2000/svg"
   xmlns="http://www.w3.org/2000/svg"
   version="1.0"
   width="892.14233"
   height="298.83188"
   id="svg2">
  <defs
     id="defs4" />
  <g
     transform="translate(54.006966,-91.673101)"
     id="layer1">
    <path
       d="M -54.006966,372.93579 L -54.006966,355.36659 L -52.14121,355.36659 L -50.275454,355.36659 L -50.275454,240.77809 L -50.275454,126.18958 L -52.14121,126.18958 L -54.006966,126.18958 L -54.006966,108.93134 L -54.006966,91.673101 L 392.06419,91.673101 L 838.13535,91.673101 L 838.13535,108.93134 L 838.13535,126.18958 L 835.95863,126.18958 L 833.78192,126.18958 L 833.78192,240.77809 L 833.78192,355.36659 L 835.95863,355.36659 L 838.13535,355.36659 L 838.13535,372.93579 L 838.13535,390.50499 L 392.06419,390.50499 L -54.006966,390.50499 L -54.006966,372.93579 z M -35.660366,240.77809 L -35.660366,126.18958 L -39.702837,126.18958 L -43.745309,126.18958 L -43.745309,240.77809 L -43.745309,355.36659 L -39.702837,355.36659 L -35.660366,355.36659 L -35.660366,240.77809 z M -21.045278,240.77809 L -21.045278,126.18958 L -25.087749,126.18958 L -29.13022,126.18958 L -29.13022,240.77809 L -29.13022,355.36659 L -25.087749,355.36659 L -21.045278,355.36659 L -21.045278,240.77809 z M 4.764347,240.77809 L 4.764347,126.18958 L -4.7199129,126.18958 L -14.204172,126.18958 L -14.204172,240.77809 L -14.204172,355.36659 L -4.7199129,355.36659 L 4.764347,355.36659 L 4.764347,240.77809 z M 19.379435,240.77809 L 19.379435,126.18958 L 15.336964,126.18958 L 11.294493,126.18958 L 11.294493,240.77809 L 11.294493,355.36659 L 15.336964,355.36659 L 19.379435,355.36659 L 19.379435,240.77809 z M 56.072636,240.77809 L 56.072636,126.18958 L 46.588376,126.18958 L 37.104117,126.18958 L 37.104117,240.77809 L 37.104117,355.36659 L 46.588376,355.36659 L 56.072636,355.36659 L 56.072636,240.77809 z M 70.998684,240.77809 L 70.998684,126.18958 L 66.956212,126.18958 L 62.913741,126.18958 L 62.913741,240.77809 L 62.913741,355.36659 L 66.956212,355.36659 L 70.998684,355.36659 L 70.998684,240.77809 z M 96.49735,240.77809 L 96.49735,126.18958 L 92.45488,126.18958 L 88.412406,126.18958 L 88.412406,240.77809 L 88.412406,355.36659 L 92.45488,355.36659 L 96.49735,355.36659 L 96.49735,240.77809 z M 111.11244,240.77809 L 111.11244,126.18958 L 107.06997,126.18958 L 103.02749,126.18958 L 103.02749,240.77809 L 103.02749,355.36659 L 107.06997,355.36659 L 111.11244,355.36659 L 111.11244,240.77809 z M 136.92206,240.77809 L 136.92206,126.18958 L 132.87959,126.18958 L 128.83712,126.18958 L 128.83712,240.77809 L 128.83712,355.36659 L 132.87959,355.36659 L 136.92206,355.36659 L 136.92206,240.77809 z M 162.73169,240.77809 L 162.73169,126.18958 L 158.68921,126.18958 L 154.64674,126.18958 L 154.64674,240.77809 L 154.64674,355.36659 L 158.68921,355.36659 L 162.73169,355.36659 L 162.73169,240.77809 z M 188.23035,240.77809 L 188.23035,126.18958 L 178.74609,126.18958 L 169.26183,126.18958 L 169.26183,240.77809 L 169.26183,355.36659 L 178.74609,355.36659 L 188.23035,355.36659 L 188.23035,240.77809 z M 214.03997,240.77809 L 214.03997,126.18958 L 204.55572,126.18958 L 195.07146,126.18958 L 195.07146,240.77809 L 195.07146,355.36659 L 204.55572,355.36659 L 214.03997,355.36659 L 214.03997,240.77809 z M 239.8496,240.77809 L 239.8496,126.18958 L 235.80713,126.18958 L 231.76466,126.18958 L 231.76466,240.77809 L 231.76466,355.36659 L 235.80713,355.36659 L 239.8496,355.36659 L 239.8496,240.77809 z M 265.34826,240.77809 L 265.34826,126.18958 L 255.864,126.18958 L 246.37974,126.18958 L 246.37974,240.77809 L 246.37974,355.36659 L 255.864,355.36659 L 265.34826,355.36659 L 265.34826,240.77809 z M 279.96335,240.77809 L 279.96335,126.18958 L 276.07636,126.18958 L 272.18937,126.18958 L 272.18937,240.77809 L 272.18937,355.36659 L 276.07636,355.36659 L 279.96335,355.36659 L 279.96335,240.77809 z M 316.96751,240.77809 L 316.96751,126.18958 L 307.32777,126.18958 L 297.68803,126.18958 L 297.68803,240.77809 L 297.68803,355.36659 L 307.32777,355.36659 L 316.96751,355.36659 L 316.96751,240.77809 z M 331.27164,240.77809 L 331.27164,126.18958 L 327.38465,126.18958 L 323.49766,126.18958 L 323.49766,240.77809 L 323.49766,355.36659 L 327.38465,355.36659 L 331.27164,355.36659 L 331.27164,240.77809 z M 357.08127,240.77809 L 357.08127,126.18958 L 353.19427,126.18958 L 349.30728,126.18958 L 349.30728,240.77809 L 349.30728,355.36659 L 353.19427,355.36659 L 357.08127,355.36659 L 357.08127,240.77809 z M 382.89089,240.77809 L 382.89089,126.18958 L 373.40663,126.18958 L 363.92237,126.18958 L 363.92237,240.77809 L 363.92237,355.36659 L 373.40663,355.36659 L 382.89089,355.36659 L 382.89089,240.77809 z M 397.50598,240.77809 L 397.50598,126.18958 L 393.46351,126.18958 L 389.42104,126.18958 L 389.42104,240.77809 L 389.42104,355.36659 L 393.46351,355.36659 L 397.50598,355.36659 L 397.50598,240.77809 z M 412.12107,240.77809 L 412.12107,126.18958 L 408.23408,126.18958 L 404.34708,126.18958 L 404.34708,240.77809 L 404.34708,355.36659 L 408.23408,355.36659 L 412.12107,355.36659 L 412.12107,240.77809 z M 448.81427,240.77809 L 448.81427,126.18958 L 439.33001,126.18958 L 429.84575,126.18958 L 429.84575,240.77809 L 429.84575,355.36659 L 439.33001,355.36659 L 448.81427,355.36659 L 448.81427,240.77809 z M 474.62389,240.77809 L 474.62389,126.18958 L 470.58142,126.18958 L 466.53895,126.18958 L 466.53895,240.77809 L 466.53895,355.36659 L 470.58142,355.36659 L 474.62389,355.36659 L 474.62389,240.77809 z M 500.43352,240.77809 L 500.43352,126.18958 L 496.39104,126.18958 L 492.34857,126.18958 L 492.34857,240.77809 L 492.34857,355.36659 L 496.39104,355.36659 L 500.43352,355.36659 L 500.43352,240.77809 z M 525.93218,240.77809 L 525.93218,126.18958 L 516.44792,126.18958 L 506.96366,126.18958 L 506.96366,240.77809 L 506.96366,355.36659 L 516.44792,355.36659 L 525.93218,355.36659 L 525.93218,240.77809 z M 551.74181,240.77809 L 551.74181,126.18958 L 542.25755,126.18958 L 532.77329,126.18958 L 532.77329,240.77809 L 532.77329,355.36659 L 542.25755,355.36659 L 551.74181,355.36659 L 551.74181,240.77809 z M 566.35689,240.77809 L 566.35689,126.18958 L 562.4699,126.18958 L 558.58291,126.18958 L 558.58291,240.77809 L 558.58291,355.36659 L 562.4699,355.36659 L 566.35689,355.36659 L 566.35689,240.77809 z M 603.05009,240.77809 L 603.05009,126.18958 L 593.56583,126.18958 L 584.08158,126.18958 L 584.08158,240.77809 L 584.08158,355.36659 L 593.56583,355.36659 L 603.05009,355.36659 L 603.05009,240.77809 z M 617.66518,240.77809 L 617.66518,126.18958 L 613.77819,126.18958 L 609.8912,126.18958 L 609.8912,240.77809 L 609.8912,355.36659 L 613.77819,355.36659 L 617.66518,355.36659 L 617.66518,240.77809 z M 643.47481,240.77809 L 643.47481,126.18958 L 633.99055,126.18958 L 624.50629,126.18958 L 624.50629,240.77809 L 624.50629,355.36659 L 633.99055,355.36659 L 643.47481,355.36659 L 643.47481,240.77809 z M 669.28443,240.77809 L 669.28443,126.18958 L 665.24196,126.18958 L 661.19949,126.18958 L 661.19949,240.77809 L 661.19949,355.36659 L 665.24196,355.36659 L 669.28443,355.36659 L 669.28443,240.77809 z M 683.89952,240.77809 L 683.89952,126.18958 L 680.01253,126.18958 L 676.12554,126.18958 L 676.12554,240.77809 L 676.12554,355.36659 L 680.01253,355.36659 L 683.89952,355.36659 L 683.89952,240.77809 z M 698.51461,240.77809 L 698.51461,126.18958 L 694.62762,126.18958 L 690.74062,126.18958 L 690.74062,240.77809 L 690.74062,355.36659 L 694.62762,355.36659 L 698.51461,355.36659 L 698.51461,240.77809 z M 735.20781,240.77809 L 735.20781,126.18958 L 725.72355,126.18958 L 716.23929,126.18958 L 716.23929,240.77809 L 716.23929,355.36659 L 725.72355,355.36659 L 735.20781,355.36659 L 735.20781,240.77809 z M 761.01743,240.77809 L 761.01743,126.18958 L 751.53317,126.18958 L 742.04891,126.18958 L 742.04891,240.77809 L 742.04891,355.36659 L 751.53317,355.36659 L 761.01743,355.36659 L 761.01743,240.77809 z M 775.63252,240.77809 L 775.63252,126.18958 L 771.74553,126.18958 L 767.85854,126.18958 L 767.85854,240.77809 L 767.85854,355.36659 L 771.74553,355.36659 L 775.63252,355.36659 L 775.63252,240.77809 z M 801.44215,240.77809 L 801.44215,126.18958 L 797.39967,126.18958 L 793.3572,126.18958 L 793.3572,240.77809 L 793.3572,355.36659 L 797.39967,355.36659 L 801.44215,355.36659 L 801.44215,240.77809 z M 827.25177,240.77809 L 827.25177,126.18958 L 823.2093,126.18958 L 819.16683,126.18958 L 819.16683,240.77809 L 819.16683,355.36659 L 823.2093,355.36659 L 827.25177,355.36659 L 827.25177,240.77809 z "
       style="fill:#000000"
       id="path2325" />
  </g>
</svg>
